<svg id="Layer_1" data-name="Layer 1" xmlns="http://www.w3.org/2000/svg" viewBox="0 0 137.06 105.46"><defs><style>.cls-1{fill:#fefefe;}.cls-2{fill:#7288d9;}</style></defs><path class="cls-1" d="M110.44,22.47a38,38,0,0,0-6.1-4.5A85.53,85.53,0,0,0,84.78,9.24c-.69-.22-.61-.17-.23-.77.69-1.07,1.59-1.17,2.78-1.07A51.52,51.52,0,0,1,102,10.91a58,58,0,0,1,13.28,7.39,2.64,2.64,0,0,1,.73,1,130.21,130.21,0,0,1,6.45,15.08,149.42,149.42,0,0,1,4.68,15.5,137.86,137.86,0,0,1,3,16.5,121.92,121.92,0,0,1,.9,14,2,2,0,0,1-.41,1.26,36.8,36.8,0,0,1-14.91,11.77A46.26,46.26,0,0,1,100,97.18a.57.57,0,0,0-.13,0c-1.68.53-2.32-.79-3.13-1.78C95,93.29,93.33,91.15,91.6,89c-.28-.33-.3-.44.17-.57a38.55,38.55,0,0,0,13.17-6.66A27,27,0,0,0,110.58,76c-12.9,7.83-26.69,12.13-41.73,12a80.59,80.59,0,0,1-41.63-12A13.2,13.2,0,0,0,29,78.2a35.89,35.89,0,0,0,14.74,9.51c.45.16.9.32,1.36.46.71.24.72.25.27.81-.88,1.1-1.77,2.19-2.66,3.29-1.2,1.48-2.42,3-3.6,4.46a1.17,1.17,0,0,1-1.09.5,46,46,0,0,1-17-3.92,37.84,37.84,0,0,1-10-6.54,30.53,30.53,0,0,1-4.74-5.35A1.38,1.38,0,0,1,6,80.64a125.33,125.33,0,0,1,.87-14A130.17,130.17,0,0,1,9.07,53.52c.9-4.17,2-8.3,3.26-12.39a148.73,148.73,0,0,1,5.94-16c.92-2.11,1.87-4.2,3-6.22a5.14,5.14,0,0,1,1.81-1.54,57.62,57.62,0,0,1,16-7.88A54.39,54.39,0,0,1,50.23,7.34a2.06,2.06,0,0,1,2.23,1.24c-10,3-19.53,7.09-27.73,13.77a2.91,2.91,0,0,0,1.2-.51,91.76,91.76,0,0,1,20.85-7.68,76.87,76.87,0,0,1,8.28-1.38,115.46,115.46,0,0,1,12.19-.93,90.36,90.36,0,0,1,10,.4,86.38,86.38,0,0,1,29.64,8.43C108.09,21.26,109.26,21.87,110.44,22.47Z"/><path class="cls-2" d="M87,71a10.27,10.27,0,0,1-8.72-5.83,12.23,12.23,0,0,1,1-13.73,10.31,10.31,0,0,1,14.64-2.09,11.89,11.89,0,0,1,4.59,11A11.61,11.61,0,0,1,94,68.76,10.6,10.6,0,0,1,87,71Z"/><path class="cls-2" d="M59.43,60.14a11.47,11.47,0,0,1-5.38,9.26,10.27,10.27,0,0,1-13.23-1.8,12.58,12.58,0,0,1-.1-16.82,10.41,10.41,0,0,1,15.62,0C58.37,53,59.43,55.85,59.43,60.14Z"/></svg>