<svg id="Layer_1" data-name="Layer 1" xmlns="http://www.w3.org/2000/svg" viewBox="0 0 144.29 139.98"><defs><style>.cls-1{fill:#d39129;}</style></defs><path class="cls-1" d="M108.68,78.52C107.06,56.94,91.38,40,72.25,40S37.45,56.94,35.83,78.52c-.09,1.21-.14,2.43-.14,3.67h73.13C108.82,81,108.77,79.73,108.68,78.52ZM82.78,51.34a3.79,3.79,0,0,1,3.15-1.62,3.58,3.58,0,0,1,3.72,3.44,3.23,3.23,0,0,1-.55,1.78,3.76,3.76,0,0,1-3.17,1.67,3.6,3.6,0,0,1-3.73-3.45A3.23,3.23,0,0,1,82.78,51.34ZM66,61.83l2.62-5.32,2.77-5.63a1.05,1.05,0,0,1,1.82,0L76,56.67l2.55,5.16a1.05,1.05,0,0,1-.91,1.58H66.86A1.05,1.05,0,0,1,66,61.83ZM54.88,52.91a3.62,3.62,0,0,1,3.7-3.19,3.87,3.87,0,0,1,2.14.63,3.38,3.38,0,0,1,1.58,2.81,3.73,3.73,0,0,1-7.44,0C54.86,53.08,54.88,53,54.88,52.91ZM91.4,70.77l-7,.92v5H60.48v-5l-7.36-.93a.9.9,0,0,1-.79-1,.91.91,0,0,1,1-.78l8.94,1.12v4.75H72V72.52a.9.9,0,1,1,1.8,0v2.34h8.78V70.11L91.16,69a.9.9,0,1,1,.24,1.78Z"/><path class="cls-1" d="M141.4,67.77a65.58,65.58,0,0,0-.71-7.86L127,57.64l-4.64-13,9.12-10.46a68.81,68.81,0,0,0-9.78-12.65L109.27,27.8,97.89,20.06,99.12,6.21A68.55,68.55,0,0,0,84.23,1.82L77.77,14.15,64,14.47l-7.07-12a68.68,68.68,0,0,0-15.1,5.33l2,13.75L32.93,29.94l-12.75-5.5a69,69,0,0,0-9.06,13.18l9.7,9.92L16.91,60.73,3.36,63.78a70,70,0,0,0-.26,8.36,76.42,76.42,0,0,0,.68,7.63l13.7,2.3,4.6,13-9.19,10.44a70.53,70.53,0,0,0,9.78,12.72L35.11,112l11.36,7.78-1.28,13.85a69.29,69.29,0,0,0,15.35,4.52L67,125.8l13.77-.38,7.09,12a69.21,69.21,0,0,0,15.08-5.4l-2.06-13.74,10.9-8.42,12.76,5.47a68.6,68.6,0,0,0,9-13.21l-9.75-9.88L127.63,79l13.56-3.08A70.91,70.91,0,0,0,141.4,67.77ZM101.27,103a44,44,0,1,1,4-62.1A44,44,0,0,1,101.27,103Z"/></svg>