<svg id="Layer_1" data-name="Layer 1" xmlns="http://www.w3.org/2000/svg" viewBox="0 0 151.21 78.72"><defs><style>.cls-1{fill:#fff;}</style></defs><path class="cls-1" d="M137.26,65.44h3.14a60.88,60.88,0,0,0-.48-6.22L129,57.15l-2.75-2.75-3.32-10,8.86-9.7a65.63,65.63,0,0,0-9-12.18l-11.88,5.63-10.6-7.57,1.46-13.07a64.25,64.25,0,0,0-14-4.47l-4.58,8.29L76.1,4.28,67.43,13,61.92,3.1a65.67,65.67,0,0,0-14.4,4.72l1.63,13.06L38.61,28.56,26.67,23.08a64.87,64.87,0,0,0-8.85,12.28l9,9.59-4,12.4L9.92,59.94c-.21,1.81-.34,3.64-.4,5.5h5.42L4.88,75.5l41.9-.38,29.3-.26,29.35.26,41.89.38Zm-31.9,6.62L76.09,72l-29.26.27L13,72.6l7.1-7.16L70.56,14.59,76.1,9l5.39,5.39,51.05,51.05,6.64,6.65Z"/><path class="cls-1" d="M110.47,65.44c-1.5-20-16-35.71-33.78-35.71S44.41,45.43,42.91,65.44c-.08,1.12-.14,2.26-.14,3.41H110.6C110.6,67.7,110.55,66.56,110.47,65.44ZM82.53,50a1,1,0,0,1-.84,1.46h-10A1,1,0,0,1,70.84,50L73.27,45l2.57-5.23a1,1,0,0,1,1.69,0l2.64,5.37Zm6.84-11.24a3.33,3.33,0,0,1,3.45,3.2,3,3,0,0,1-.51,1.65,3.49,3.49,0,0,1-2.94,1.54,3.33,3.33,0,0,1-3.45-3.19,3,3,0,0,1,.53-1.69A3.51,3.51,0,0,1,89.37,38.73ZM64,38.73a3.63,3.63,0,0,1,2,.59,3.11,3.11,0,0,1,1.47,2.61,3.47,3.47,0,0,1-6.91,0,1.6,1.6,0,0,1,0-.23A3.34,3.34,0,0,1,64,38.73ZM94.44,58.26l-6.53.85v4.61H65.76v-4.6l-6.82-.86a.84.84,0,0,1-.73-.93.85.85,0,0,1,.94-.73l8.28,1v4.4H86.24v-4.4l8-1a.83.83,0,1,1,.21,1.65Z"/></svg>